<svg version="1.1" id="Layer_1" xmlns="http://www.w3.org/2000/svg" xmlns:xlink="http://www.w3.org/1999/xlink" x="0px" y="0px"
     width="40" height="40" viewBox="0 0 142 142" enable-background="new 0 0 142 142" xml:space="preserve">
<path fill="#010101" opacity="1.000000" stroke="none" 
	d="
M96.000000,143.000000 
	C64.027740,143.000000 32.555477,143.000000 1.041608,143.000000 
	C1.041608,95.736115 1.041608,48.472191 1.041608,1.104131 
	C48.222023,1.104131 95.444359,1.104131 142.833344,1.104131 
	C142.833344,48.332848 142.833344,95.666382 142.833344,143.000000 
	C127.472527,143.000000 111.986259,143.000000 96.000000,143.000000 
M69.101929,109.418419 
	C70.407043,111.356163 71.712158,113.293915 73.181664,115.475731 
	C85.828354,102.838501 97.176826,91.621689 108.306480,80.191795 
	C109.453926,79.013390 109.719040,76.553894 109.674973,74.705971 
	C109.397156,63.052849 108.850258,51.406376 108.530334,39.753918 
	C108.370399,33.928741 108.502487,28.095549 108.502487,22.265982 
	C108.002075,22.232327 107.501656,22.198669 107.001244,22.165014 
	C103.239777,29.741608 99.430206,37.294918 95.744843,44.908348 
	C94.571236,47.332855 93.295166,48.839008 90.172188,48.778000 
	C79.516205,48.569836 68.849037,48.853710 58.198223,48.539711 
	C56.421276,48.487316 53.996628,46.788147 53.086178,45.167454 
	C49.671677,39.089279 46.794342,32.711166 43.636383,26.485699 
	C42.895958,25.026054 41.844788,23.724039 40.425518,21.576033 
	C39.809013,40.073208 39.120594,57.380703 38.788334,74.695030 
	C38.743996,77.005600 39.920532,79.908043 41.524982,81.587395 
	C50.381702,90.857552 59.546635,99.833252 69.101929,109.418419 
z"/>
<path fill="#F8F8F8" opacity="1.000000" stroke="none" 
	d="
M68.853912,109.164162 
	C59.546635,99.833252 50.381702,90.857552 41.524982,81.587395 
	C39.920532,79.908043 38.743996,77.005600 38.788334,74.695030 
	C39.120594,57.380703 39.809013,40.073208 40.425518,21.576033 
	C41.844788,23.724039 42.895958,25.026054 43.636383,26.485699 
	C46.794342,32.711166 49.671677,39.089279 53.086178,45.167454 
	C53.996628,46.788147 56.421276,48.487316 58.198223,48.539711 
	C68.849037,48.853710 79.516205,48.569836 90.172188,48.778000 
	C93.295166,48.839008 94.571236,47.332855 95.744843,44.908348 
	C99.430206,37.294918 103.239777,29.741608 107.001244,22.165014 
	C107.501656,22.198669 108.002075,22.232327 108.502487,22.265982 
	C108.502487,28.095549 108.370399,33.928741 108.530334,39.753918 
	C108.850258,51.406376 109.397156,63.052849 109.674973,74.705971 
	C109.719040,76.553894 109.453926,79.013390 108.306480,80.191795 
	C97.176826,91.621689 85.828354,102.838501 73.181664,115.475731 
	C71.712158,113.293915 70.407043,111.356163 68.853912,109.164162 
M47.822151,65.668106 
	C47.766037,65.777382 47.709923,65.886650 47.653809,65.995926 
	C47.862537,65.852867 48.071266,65.709816 47.789478,66.244225 
	C50.452583,75.275864 55.472099,77.709007 64.933311,74.035843 
	C59.112938,71.123573 53.668163,68.399246 47.822151,65.668106 
M88.056763,71.662987 
	C86.711937,72.391136 85.367104,73.119286 83.543938,74.106422 
	C93.226166,77.008156 95.607216,75.890045 100.093941,65.987434 
	C95.721550,68.041115 92.227081,69.682434 88.056763,71.662987 
z"/>
<path fill="#313131" opacity="1.000000" stroke="none" 
	d="
M48.223389,65.674911 
	C53.668163,68.399246 59.112938,71.123573 64.933311,74.035843 
	C55.472099,77.709007 50.452583,75.275864 48.021671,65.933098 
	C48.253864,65.621971 48.223389,65.674911 48.223389,65.674911 
z"/>
<path fill="#282828" opacity="1.000000" stroke="none" 
	d="
M88.394691,71.493370 
	C92.227081,69.682434 95.721550,68.041115 100.093941,65.987434 
	C95.607216,75.890045 93.226166,77.008156 83.543938,74.106422 
	C85.367104,73.119286 86.711937,72.391136 88.394691,71.493370 
z"/>
<path fill="#313131" opacity="1.000000" stroke="none" 
	d="
M48.266930,65.594360 
	C48.071266,65.709816 47.862537,65.852867 47.653809,65.995926 
	C47.709923,65.886650 47.766037,65.777382 48.022770,65.671509 
	C48.223389,65.674911 48.253864,65.621971 48.266930,65.594360 
z"/>
</svg>